<?xml version="1.0" encoding="utf-8"?>
<!-- Generator: Adobe Illustrator 16.0.0, SVG Export Plug-In . SVG Version: 6.00 Build 0)  -->
<!DOCTYPE svg PUBLIC "-//W3C//DTD SVG 1.1//EN" "http://www.w3.org/Graphics/SVG/1.1/DTD/svg11.dtd">
<svg version="1.1" id="Layer_1" xmlns="http://www.w3.org/2000/svg" xmlns:xlink="http://www.w3.org/1999/xlink" x="0px" y="0px"
	 width="72.784px" height="72.782px" viewBox="0 0 72.784 72.782" enable-background="new 0 0 72.784 72.782" xml:space="preserve">
<g>
	<path fill="none" stroke="#000" stroke-width="6" stroke-linecap="round" stroke-linejoin="round" stroke-miterlimit="10" d="
		M36.393,3c18.41,0,33.391,14.979,33.391,33.39"/>
	<path fill="none" stroke="#000" stroke-width="6" stroke-linecap="round" stroke-linejoin="round" stroke-miterlimit="10" d="
		M36.391,13.714c12.504,0,22.678,10.173,22.678,22.676"/>
	<path fill="none" stroke="#000" stroke-width="6" stroke-linecap="round" stroke-linejoin="round" stroke-miterlimit="10" d="
		M36.391,25.647c5.925,0,10.745,4.819,10.745,10.743"/>
	<path fill="none" stroke="#000" stroke-width="6" stroke-linecap="round" stroke-linejoin="round" stroke-miterlimit="10" d="
		M58.621,59.451c-0.114,0.866-0.522,1.743-1.066,2.287l-4.048,4.057c-13.799,11.553-31.323-5.657-31.497-5.831l-9.163-9.169
		C12.671,50.62-4.543,33.101,6.956,19.35l4.118-4.121c0.543-0.543,1.419-0.952,2.285-1.065c0.169-0.022,0.333-0.033,0.491-0.033
		c0.635,0,1.164,0.174,1.462,0.47l8.563,9.88c1.025,1.025,1.025,2.695,0,3.721l-3.125,3.127c-0.766,0.826-1.315,1.612-1.658,2.396
		c-0.684,1.87-1.771,6.763,2.927,11.823l5.265,5.268c5.031,4.674,9.918,3.584,11.85,2.875c0.721-0.315,1.506-0.866,2.361-1.661
		l3.097-3.098c0.993-0.995,2.669-1.047,3.773,0.053l9.786,8.484C58.559,57.896,58.729,58.616,58.621,59.451z"/>
</g>
</svg>
